<svg id="Layer_1" data-name="Layer 1" xmlns="http://www.w3.org/2000/svg" viewBox="0 0 1768.66 689.29"><defs><style>.cls-1{fill:none;}.cls-1,.cls-2,.cls-3,.cls-4,.cls-7,.cls-8{stroke:#000;stroke-miterlimit:10;stroke-width:5px;}.cls-1,.cls-7,.cls-8{stroke-linecap:round;}.cls-2,.cls-8{fill:#fff;}.cls-3{fill:#e04465;}.cls-4{fill:#ef4d68;}.cls-5{fill:#e8e8e8;}.cls-6{fill:#009b16;}.cls-7{fill:#f65605;}</style></defs><title>bg-welcome</title><rect class="cls-1" x="1220.23" y="147.7" width="264.88" height="538.38"/><rect class="cls-1" x="1240.73" y="163.69" width="223.89" height="500.21"/><rect class="cls-1" x="1178.72" y="413.13" width="19.02" height="50.92"/><rect class="cls-1" x="1197.15" y="413.13" width="8.79" height="50.92"/><rect class="cls-1" x="1167.67" y="431.13" width="22.09" height="13.75" rx="6.88" ry="6.88"/><rect class="cls-1" x="1167.67" y="431.13" width="13.9" height="13.75" rx="6.88" ry="6.88"/><circle class="cls-2" cx="903.96" cy="515.04" r="3.96"/><rect class="cls-3" x="960.02" y="393.99" width="164.33" height="250" rx="49.84" ry="49.84"/><rect class="cls-4" x="929.36" y="393.99" width="164.33" height="250" rx="49.84" ry="49.84"/><path class="cls-1" d="M1018.52,644a26,26,0,0,1-26-26"/><path class="cls-1" d="M1060.17,504.93v65.9a19.15,19.15,0,0,1-19.09,19.09H978a19.15,19.15,0,0,1-19.09-19.09V462.51A19.15,19.15,0,0,1,978,443.42h31.54"/><path class="cls-2" d="M970.41,386.91a6.57,6.57,0,0,0-4.83,2.11,17.2,17.2,0,0,0-31.19,10c0,.52,0,1,.07,1.54a11.42,11.42,0,1,0,15.61,15.6c.51.05,1,.08,1.54.08a17.21,17.21,0,0,0,17.18-16.35,6.61,6.61,0,1,0,1.62-13Z"/><circle class="cls-2" cx="922.36" cy="378.57" r="3.96"/><circle class="cls-2" cx="937.02" cy="385.09" r="5.69"/><circle class="cls-2" cx="982.71" cy="369.47" r="5.69"/><path class="cls-2" d="M924.51,438.32a5.65,5.65,0,0,0,1.82,4.13,7.65,7.65,0,0,0-3.73,6.62,7.57,7.57,0,0,0,1.82,4.9,10.44,10.44,0,0,0-4.72,13.13,14.23,14.23,0,0,0,4.92,26.75,7.67,7.67,0,1,0,11.28-3.61,14.21,14.21,0,0,0,1.17-19.87,10.47,10.47,0,0,0-1.59-15.74,7.65,7.65,0,0,0-1.36-12.23,5.69,5.69,0,1,0-9.61-4.08Z"/><path class="cls-1" d="M1026.36,443.42h14.72a19.15,19.15,0,0,1,19.09,19.09V475.6"/><path class="cls-1" d="M980.2,644s1.49,27.15-10.51,39.82h9.72"/><path class="cls-1" d="M1043,644s1.5,27.15-10.5,39.82h9.72"/><path class="cls-1" d="M929.36,527.71s-30.48,24.47-27.27,69.79"/><path class="cls-1" d="M1124.36,512.57s36.16-13.34,42.29-58.67"/><line class="cls-1" x1="1485.12" y1="686.08" x2="781" y2="686.08"/><line class="cls-1" x1="1226.89" y1="147.7" x2="1352.67" y2="147.7"/><line class="cls-1" x1="1478.46" y1="147.7" x2="1352.67" y2="147.7"/><circle class="cls-1" cx="1438.8" cy="432.86" r="12.88"/><line class="cls-1" x1="1207.68" y1="147.7" x2="1497.68" y2="147.7"/><line class="cls-1" x1="1220.23" y1="663.9" x2="1485.12" y2="663.9"/><rect class="cls-1" x="1311.68" y="421.63" width="84.67" height="22.46"/><line class="cls-1" x1="1319.01" y1="432.86" x2="1387.68" y2="432.86"/><rect class="cls-1" x="1265.01" y="202.25" width="77.33" height="199.62"/><rect class="cls-1" x="1363.35" y="202.25" width="77.33" height="199.62"/><rect class="cls-1" x="1264.93" y="465.17" width="77.33" height="171.41"/><rect class="cls-1" x="1363.26" y="465.17" width="77.33" height="171.41"/><rect class="cls-5" x="1523.97" y="291.29" width="58.5" height="23.49" rx="5.67" ry="5.67"/><rect class="cls-5" x="1594.76" y="252.87" width="58.5" height="23.49" rx="5.67" ry="5.67"/><rect class="cls-5" x="1710.17" y="475.05" width="58.5" height="23.49" rx="5.67" ry="5.67"/><rect class="cls-5" x="877.85" y="286.37" width="58.5" height="23.49" rx="5.67" ry="5.67"/><rect class="cls-5" x="803.61" y="231.11" width="58.5" height="23.49" rx="5.67" ry="5.67"/><rect class="cls-5" x="611.75" y="124.2" width="58.5" height="23.49" rx="5.67" ry="5.67"/><rect class="cls-5" x="872.61" width="58.5" height="23.49" rx="5.67" ry="5.67"/><rect class="cls-5" x="872.61" width="58.5" height="23.49" rx="5.67" ry="5.67"/><rect class="cls-5" x="1095.11" y="162.88" width="58.5" height="23.49" rx="5.67" ry="5.67"/><rect class="cls-5" x="210.14" y="77.61" width="58.5" height="23.49" rx="5.67" ry="5.67"/><rect class="cls-5" x="162.14" y="138.14" width="58.5" height="23.49" rx="5.67" ry="5.67"/><rect class="cls-5" x="191.39" y="611.23" width="58.5" height="23.49" rx="5.67" ry="5.67"/><rect class="cls-5" x="678.65" y="571.29" width="58.5" height="23.49" rx="5.67" ry="5.67"/><path class="cls-6" d="M1601.76,611.25c-9.41-5.26-22.75-11.33-26.81-21.31-1.89-4.66-6-8.7-5.33-13.67,1.51-10.81,7.44-23.28,13-32.67s10-24.8,7-35.33c-3.23-11.28-7.13-16.63-15-25.33s-17.19-14-21.34-25,3.91-24.2,12.67-32c4.64-4.13,13.41-8.67,17.68-13.18,5.72-6,6.61-15.25,5.49-23.49s-9-18-9.5-26.33c-1.1-17.43,5.62-34.07,23.66-42.84,12-5.83,25.24-5,35.9-1.19s21.44,13.09,24.94,23.86c3.78,11.65-.64,23.87-4.71,35.42s-9.64,22.65-12.1,34.65c-1.91,9.34-1.67,19.73,3.75,27.57,5,7.29,6.91,9,13.22,15.19,11.76,11.6,19.35,20.9,17.18,36-3.49,24.29-24.09,23.79-27.51,39.62-2.5,11.61,18.67,27.67,19,45.33.19,10.27,1.56-2.63-2,7-8.41,22.76-19.17,29.3-36.39,46.38"/><path d="M1603,609.09c-9.6-5.32-20.81-10.08-25.91-20.42-1.43-2.89-3.58-5.73-4.6-8.8s0-6.32.83-9.26a96,96,0,0,1,8.25-20.08c5.34-10,10.32-19.43,11.34-31,.9-10.19-2.86-20.57-8.71-28.84-6.27-8.86-14.67-15.34-21.94-23.25-4.16-4.53-7.83-10.18-7.6-16.57.25-7,4.28-13.67,8.77-18.83,7.19-8.27,19.3-11.87,24.93-21.47,5.08-8.65,4.66-20.31.87-29.32-2.27-5.37-5.64-10.53-6.83-16.29-1.15-5.54-.38-12,1-17.39a38.46,38.46,0,0,1,20.4-24.93c24.75-12.41,63.36,4.53,58.77,35.44-3.69,24.82-25.48,50.05-17.35,76,6.48,20.62,34.34,29.71,34.07,53.1-.14,11.73-6.17,19.93-14.92,26.94-5.74,4.59-11.92,9.58-13,17.37-1.27,9.06,6.49,17.73,11,24.82,3.15,5,6.27,10.2,7.54,16,.57,2.62-.52,8.33,1.62,10.34a2.54,2.54,0,0,0,3.93-.51c1.23-2.17-.51-5.43-3.2-4.71-1.74.46-2.51,2.56-3.13,4-1.73,4.08-3.22,8.2-5.31,12.12-7.45,13.93-20,23.77-31,34.68-2.3,2.26,1.24,5.8,3.53,3.54,8-7.89,16.8-15.15,23.91-23.88a74.11,74.11,0,0,0,8.24-12.44c1.25-2.4,2.37-4.86,3.4-7.36a23.93,23.93,0,0,0,1.81-4.59,9.15,9.15,0,0,1,.67-1.5c-3,.06-4.06-.74-3.2-2.4l3.93-.51c1.17,1.11.19,1,.45-.13a14.08,14.08,0,0,0-.14-3.6,31,31,0,0,0-1.32-6.87,62.87,62.87,0,0,0-7.37-14.73c-4.28-6.77-13-16-9.51-24.59,2.93-7.11,10.67-10.92,16-16a36.32,36.32,0,0,0,11.1-24.56c.63-10.86-4.51-19.91-11.51-27.79-7.73-8.72-19-16.52-22.67-28.11-4.42-13.94,2-29,7.11-41.82s11.77-27,10.77-41.06c-1.81-25.37-30.82-39.5-53.64-35.79s-37.66,23.63-37.32,46.16c.18,12.19,9.55,21.43,10,33.51.25,6.67-1.12,13.4-6.06,18.2-4.33,4.19-10,6.92-14.71,10.6-8.52,6.6-16.14,17.24-16.56,28.35-.44,11.58,8.76,20.1,16.54,27.31,9.71,9,19.41,19.82,21.57,33.39,2.43,15.29-6.58,28.06-12.84,41-3.28,6.81-6.19,14-7.5,21.47-1.16,6.65,2.3,10.74,5,16.46,5.54,11.61,17.28,17,28,22.9,2.81,1.56,5.34-2.76,2.52-4.32Z"/><rect class="cls-7" x="1564.34" y="573.16" width="113.63" height="113.63"/><line class="cls-1" x1="1621.16" y1="573.16" x2="1621.16" y2="315.9"/><polyline class="cls-1" points="1583.9 341.56 1621.16 365.94 1662.53 341.9"/><polyline class="cls-1" points="1588.98 386.14 1621.16 407.19 1655.29 387.37"/><polyline class="cls-1" points="1575.9 418.84 1621.16 448.45 1647.6 433.09"/><polyline class="cls-1" points="1553.32 444.53 1621.16 489.7 1669.91 461.38"/><polyline class="cls-1" points="1590.16 510.68 1621.16 530.96 1679.79 496.9"/><polyline class="cls-1" points="1581.19 546.07 1621.16 572.21 1659.98 549.66"/><line class="cls-8" x1="1564.34" y1="605.94" x2="1677.97" y2="605.94"/><line class="cls-8" x1="1564.34" y1="622.98" x2="1677.97" y2="622.98"/></svg>